<svg width="24" height="24" viewBox="0 0 24 24" fill="none" xmlns="http://www.w3.org/2000/svg">
<path d="M24 11.9954C24 18.5961 18.6104 23.9815 11.9954 23.9815C5.38966 23.9815 0 18.5961 0 11.9954C0 5.38551 5.38966 0 11.9954 0C18.6104 0 24 5.38551 24 11.9954ZM10.1344 15.7514L8.03379 18.2462C7.37046 19.0288 8.43918 19.7928 9.00117 19.1393L11.1202 16.626C11.3229 16.3682 11.3597 16.313 11.4334 16.0552L11.5993 15.5397L10.4845 14.122L10.1344 15.7514ZM9.84878 8.68123L8.77085 9.73993C8.42075 10.0897 8.3102 10.3751 8.27335 10.8262L8.15357 12.4925C8.12593 12.9068 8.34705 13.2014 8.72477 13.2198C9.12093 13.2474 9.35126 13.0173 9.38813 12.5754L9.54473 10.7342L10.0699 10.2739C10.2541 10.099 10.5213 10.2002 10.5029 10.4212L10.3831 11.9586C10.3278 12.7411 10.5213 13.1185 11.0465 13.7813L12.4837 15.5765C12.6219 15.7514 12.6403 15.8343 12.6956 15.9448L14.1789 18.9459C14.6027 19.8112 15.911 19.2681 15.4227 18.3291L13.9947 15.4016C13.8841 15.1899 13.7367 14.9597 13.5985 14.7664L12.6772 13.4499L12.7325 13.2658C12.9904 12.5385 13.0826 12.0967 13.1286 11.3694L13.276 9.33486C13.3405 8.34982 12.7693 7.62255 11.7743 7.62255C11.0465 7.62255 10.549 8.00921 9.84878 8.68123ZM13.8196 10.8999L14.2711 11.351C14.5014 11.5811 14.6949 11.6456 15.1187 11.6456H16.6388C17.0534 11.6456 17.3206 11.4062 17.3206 11.0196C17.3206 10.6421 17.0534 10.4028 16.6388 10.4028H14.9989L13.9486 9.23359L13.8196 10.8999ZM11.0741 5.50517C11.0741 6.3153 11.7374 6.98733 12.5666 6.98733C13.3866 6.98733 14.0499 6.3153 14.0499 5.50517C14.0499 4.67664 13.3866 4.01381 12.5666 4.01381C11.7374 4.01381 11.0741 4.67664 11.0741 5.50517Z" fill="#161616"/>
</svg>
