<svg width="24" height="24" viewBox="0 0 24 24" fill="none" xmlns="http://www.w3.org/2000/svg">
<g clip-path="url(#clip0_2047_5539)">
<path d="M24 12.0045C24 18.6144 18.6104 23.9999 11.9954 23.9999C5.38966 23.9999 0 18.6144 0 12.0045C0 5.40381 5.38966 0.0183105 11.9954 0.0183105C18.6104 0.0183105 24 5.40381 24 12.0045ZM13.5156 14.2507C14.916 14.2415 16.9981 14.932 16.9981 15.8986C16.9981 17.0033 14.8975 17.7951 11.9954 17.7951C9.08408 17.7951 6.99271 17.0033 6.99271 15.8986C6.99271 14.932 9.08408 14.2415 10.4753 14.2507V13.2289C8.57737 13.2197 5.69368 14.2507 5.69368 16.0183C5.69368 17.5557 8.10751 18.8722 11.9954 18.8722C15.8925 18.8722 18.3064 17.5557 18.3064 16.0183C18.3064 14.2507 15.4227 13.2197 13.5156 13.2289V14.2507ZM9.57238 6.85836C9.57238 7.99068 10.3463 8.9481 11.3874 9.22429V13.9193C11.3874 15.6132 11.673 16.5523 11.9954 16.5523C12.3271 16.5523 12.6127 15.6317 12.6127 13.9193V9.22429C13.6538 8.9481 14.4185 7.99068 14.4185 6.85836C14.4185 5.51427 13.3497 4.43719 11.9954 4.43719C10.6411 4.43719 9.57238 5.51427 9.57238 6.85836ZM12.0783 6.1679C12.0783 6.60059 11.7374 6.9412 11.3044 6.9412C10.9175 6.9412 10.549 6.60059 10.549 6.1679C10.549 5.75364 10.9083 5.41301 11.3044 5.41301C11.7374 5.41301 12.0783 5.75364 12.0783 6.1679Z" fill="#161616"/>
</g>
<defs>
<clipPath id="clip0_2047_5539">
<rect width="24" height="24" fill="white"/>
</clipPath>
</defs>
</svg>
