<svg width="20" height="20" viewBox="0 0 20 20" fill="none" xmlns="http://www.w3.org/2000/svg">
<path d="M9.99992 16.125C11.6944 14.5694 12.9513 13.1563 13.7708 11.8858C14.5902 10.6152 14.9999 9.48663 14.9999 8.49996C14.9999 6.98607 14.5174 5.74663 13.5524 4.78163C12.5874 3.81663 11.4033 3.33385 9.99992 3.33329C8.59658 3.33274 7.4127 3.81551 6.44825 4.78163C5.48381 5.74774 5.00103 6.98718 4.99992 8.49996C4.99992 9.48607 5.40964 10.6147 6.22908 11.8858C7.04853 13.1569 8.30547 14.57 9.99992 16.125ZM9.99992 17.7708C9.80547 17.7708 9.61103 17.7361 9.41658 17.6666C9.22214 17.5972 9.04853 17.493 8.89575 17.3541C7.99297 16.5208 7.19436 15.7083 6.49992 14.9166C5.80547 14.125 5.22575 13.3577 4.76075 12.615C4.29575 11.8722 3.94159 11.1569 3.69825 10.4691C3.45492 9.78135 3.33325 9.12496 3.33325 8.49996C3.33325 6.41663 4.00353 4.7569 5.34409 3.52079C6.68464 2.28468 8.23658 1.66663 9.99992 1.66663C11.7633 1.66663 13.3155 2.28468 14.6566 3.52079C15.9977 4.7569 16.6677 6.41663 16.6666 8.49996C16.6666 9.12496 16.5452 9.78135 16.3024 10.4691C16.0596 11.1569 15.7055 11.8722 15.2399 12.615C14.7744 13.3577 14.1944 14.125 13.4999 14.9166C12.8055 15.7083 12.0069 16.5208 11.1041 17.3541C10.9513 17.493 10.7777 17.5972 10.5833 17.6666C10.3888 17.7361 10.1944 17.7708 9.99992 17.7708Z" fill="currentColor"/>
<path d="M11.413 10.0796C11.021 10.4709 10.55 10.6666 10 10.6666C9.45268 10.6693 8.98202 10.4736 8.58802 10.0796C8.19402 9.68561 7.99802 9.21461 8.00002 8.66662C8.00202 8.11862 8.19802 7.64796 8.58802 7.25463C8.97802 6.8613 9.44868 6.6653 10 6.66663C10.5513 6.66797 11.0223 6.86396 11.413 7.25463C11.8037 7.64529 11.9993 8.11595 12 8.66662C12.0007 9.21728 11.805 9.68827 11.413 10.0796Z" fill="currentColor"/>
</svg>
