<svg width="28" height="28" viewBox="0 0 28 28" fill="none" xmlns="http://www.w3.org/2000/svg">
<path d="M10.5 24.5H17.5M21 11.375V13.125C21 16.975 17.85 20.125 14 20.125M14 20.125C10.15 20.125 7 16.975 7 13.125V11.375M14 20.125V24.5" stroke="currentColor" stroke-width="1.75" stroke-linecap="round" stroke-linejoin="round"/>
<path d="M14 3.50004C13.5398 3.49773 13.0836 3.58667 12.6579 3.76174C12.2322 3.93681 11.8455 4.19453 11.52 4.52C11.1945 4.84547 10.9368 5.23223 10.7617 5.65791C10.5867 6.0836 10.4977 6.53977 10.5 7.00004V13.0704C10.5 14.9954 12.086 16.625 14 16.625C15.9141 16.625 17.5 15.0391 17.5 13.0704V7.00004C17.5 5.03129 15.9688 3.50004 14 3.50004Z" stroke="currentColor" stroke-width="1.75" stroke-linecap="round" stroke-linejoin="round"/>
</svg>
