<svg width="24" height="24" viewBox="0 0 24 24" fill="none" xmlns="http://www.w3.org/2000/svg">
<path d="M24 12C24 5.37258 18.6274 0 12 0C5.37258 0 0 5.37258 0 12C0 18.6274 5.37258 24 12 24C18.6274 24 24 18.6274 24 12Z" fill="#FF8000"/>
<path d="M4.17 12.1L3.66 11.19C4.36667 11.1167 5.02333 10.8933 5.63 10.52C6.23667 10.14 6.58667 9.69667 6.68 9.19H4.02V8.26H10.62V9.19H7.96C8.02667 9.53 8.22 9.84667 8.54 10.14C8.86 10.4267 9.23333 10.6567 9.66 10.83C10.0933 10.9967 10.5367 11.1033 10.99 11.15C10.93 11.27 10.84 11.4367 10.72 11.65C10.6067 11.8633 10.5333 12 10.5 12.06C9.90667 11.9933 9.28667 11.7833 8.64 11.43C8 11.07 7.56 10.6833 7.32 10.27C7.09333 10.71 6.67 11.1067 6.05 11.46C5.43 11.8067 4.80333 12.02 4.17 12.1ZM7.89 16.78H6.71V13.68H3.3V12.75H11.35V13.68H7.89V16.78ZM13.5023 10.58C13.5023 10.92 13.6157 11.2 13.8423 11.42C14.0757 11.64 14.389 11.75 14.7823 11.75C15.1757 11.75 15.489 11.64 15.7223 11.42C15.9557 11.2 16.0723 10.92 16.0723 10.58C16.0723 10.2533 15.9557 9.98333 15.7223 9.77C15.489 9.55 15.1757 9.44 14.7823 9.44C14.3957 9.44 14.0857 9.55 13.8523 9.77C13.619 9.98333 13.5023 10.2533 13.5023 10.58ZM19.4723 7.88V16.79H18.3123V7.88H19.4723ZM12.3023 10.59C12.3023 9.95667 12.529 9.44333 12.9823 9.05C13.4357 8.65 14.0357 8.45 14.7823 8.45C15.529 8.45 16.1257 8.65 16.5723 9.05C17.0257 9.44333 17.2523 9.95667 17.2523 10.59C17.2523 11.2167 17.0257 11.73 16.5723 12.13C16.1257 12.53 15.529 12.73 14.7823 12.73C14.0423 12.73 13.4423 12.53 12.9823 12.13C12.529 11.73 12.3023 11.2167 12.3023 10.59ZM17.9423 14.51C17.0623 14.6233 16.059 14.71 14.9323 14.77C13.599 14.8233 12.6657 14.8467 12.1323 14.84L11.9623 13.84C13.0557 13.84 14.0223 13.8233 14.8623 13.79C16.0223 13.75 17.0157 13.6767 17.8423 13.57L17.9423 14.51Z" fill="white"/>
</svg>
