<svg width="24" height="24" viewBox="0 0 24 24" fill="none" xmlns="http://www.w3.org/2000/svg">
<path d="M24 12C24 5.37258 18.6274 0 12 0C5.37258 0 0 5.37258 0 12C0 18.6274 5.37258 24 12 24C18.6274 24 24 18.6274 24 12Z" fill="#FF2D55"/>
<path d="M8.5 9.2C8.5 10.27 7.53 11.05 6.17 11.05C4.78 11.05 3.86 10.27 3.86 9.2C3.86 8.1 4.78 7.3 6.17 7.3C7.57 7.3 8.5 8.1 8.5 9.2ZM10.72 6.88V15.79H9.56V6.88H10.72ZM6.79 15.53H5.6V12.58C4.75 12.62 4.06 12.64 3.4 12.64L3.23 11.68C5.5 11.68 7.83 11.54 9.09 11.41L9.19 12.31C8.53 12.4 7.64 12.47 6.79 12.52V15.53ZM7.33 9.19C7.33 8.65 6.85 8.25 6.17 8.25C5.51 8.25 5.03 8.65 5.03 9.19C5.03 9.72 5.5 10.09 6.17 10.09C6.87 10.09 7.33 9.72 7.33 9.19ZM19.3223 15.68H13.3423V12.87H19.3223V15.68ZM18.1523 14.76V13.77H14.5223V14.76H18.1523ZM19.3223 12.45H18.1523V10.75H16.9123V9.81H18.1523V6.88H19.3223V12.45ZM17.0623 9.3H11.8823V8.4H17.0623V9.3ZM16.5923 11C16.5923 11.88 15.6723 12.47 14.4623 12.47C13.2423 12.47 12.3323 11.88 12.3323 11C12.3323 10.12 13.2323 9.53 14.4623 9.53C15.6723 9.53 16.5923 10.12 16.5923 11ZM15.4223 11C15.4223 10.64 14.9923 10.37 14.4623 10.37C13.9223 10.37 13.4923 10.64 13.4923 11C13.4923 11.36 13.9323 11.62 14.4623 11.62C14.9923 11.62 15.4223 11.36 15.4223 11ZM13.1723 8.01V7.09H15.8123V8.01H13.1723Z" fill="white"/>
</svg>
