<svg width="21" height="20" viewBox="0 0 21 20" fill="none" xmlns="http://www.w3.org/2000/svg">
<ellipse cx="11" cy="10.4999" rx="8.5" ry="8.49988" fill="#161616"/>
<path d="M20.5 10.004C20.5 15.5121 16.0087 20 10.4962 20C4.99138 20 0.5 15.5121 0.5 10.004C0.5 4.50348 4.99138 0.015625 10.4962 0.015625C16.0087 0.015625 20.5 4.50348 20.5 10.004ZM11.763 11.8758C12.93 11.8682 14.6651 12.4435 14.6651 13.249C14.6651 14.1696 12.9146 14.8294 10.4962 14.8294C8.07007 14.8294 6.32726 14.1696 6.32726 13.249C6.32726 12.4435 8.07007 11.8682 9.22939 11.8758V11.0243C7.64781 11.0166 5.24473 11.8758 5.24473 13.3488C5.24473 14.6299 7.25626 15.727 10.4962 15.727C13.7438 15.727 15.7553 14.6299 15.7553 13.3488C15.7553 11.8758 13.3522 11.0166 11.763 11.0243V11.8758ZM8.47698 5.71559C8.47698 6.65918 9.1219 7.45701 9.98947 7.68717V11.5996C9.98947 13.0112 10.2275 13.7937 10.4962 13.7937C10.7726 13.7937 11.0106 13.0266 11.0106 11.5996V7.68717C11.8781 7.45701 12.5154 6.65918 12.5154 5.71559C12.5154 4.59553 11.6248 3.69797 10.4962 3.69797C9.36758 3.69797 8.47698 4.59553 8.47698 5.71559ZM10.5653 5.14021C10.5653 5.50078 10.2812 5.78462 9.92036 5.78462C9.5979 5.78462 9.2908 5.50078 9.2908 5.14021C9.2908 4.795 9.59023 4.51114 9.92036 4.51114C10.2812 4.51114 10.5653 4.795 10.5653 5.14021Z" fill="white"/>
</svg>
