<svg width="15" height="12" viewBox="0 0 15 12" fill="none" xmlns="http://www.w3.org/2000/svg">
<path d="M8.24781 0.0791796C8.02555 -0.0263932 7.76395 -0.0263932 7.54169 0.0791796L0.607746 3.3728L7.8863 6.66547L15 3.28646L8.24781 0.0791796Z" fill="#0252c9"/>
<path d="M2.36842 9.91667V5.83068L7.55532 8.17713C7.77486 8.27644 8.03032 8.27411 8.2478 8.1708L13.4211 5.71353V9.91667C13.4211 10.1309 13.3241 10.3354 13.1555 10.4777L13.1535 10.4794L13.1503 10.4821L13.1421 10.4888L13.1328 10.4964L13.1185 10.5078C13.0995 10.5228 13.0741 10.5424 13.0423 10.566C12.9786 10.613 12.889 10.6759 12.7735 10.749C12.5425 10.8953 12.2074 11.0832 11.768 11.2687C10.8872 11.6406 9.59421 12 7.89475 12C6.19529 12 4.90228 11.6406 4.02148 11.2687C3.58213 11.0832 3.24701 10.8953 3.01603 10.749C2.90052 10.6759 2.81093 10.613 2.74722 10.566C2.71536 10.5424 2.68995 10.5228 2.67099 10.5078C2.66151 10.5003 2.65364 10.4939 2.64737 10.4888L2.63918 10.4821L2.63599 10.4794L2.63462 10.4783C2.63462 10.4783 2.63396 10.4777 2.64171 10.4693L2.6334 10.4772C2.46486 10.3349 2.36842 10.1309 2.36842 9.91667Z" fill="#0252c9"/>
<path d="M0 4.75925L1.57895 5.47354V9.75C1.57895 10.1642 1.22549 10.5 0.789475 10.5C0.35346 10.5 0 10.1642 0 9.75V4.75925Z" fill="#0252c9"/>
</svg>
