<svg width="24" height="24" viewBox="0 0 24 24" fill="none" xmlns="http://www.w3.org/2000/svg">
<path d="M24 12C24 5.37258 18.6274 0 12 0C5.37258 0 0 5.37258 0 12C0 18.6274 5.37258 24 12 24C18.6274 24 24 18.6274 24 12Z" fill="#00C5B8"/>
<path d="M10.6177 6.88V9.38H11.8777V10.35H10.6177V13.34H9.43766V6.88H10.6177ZM10.8277 15.53H4.83766V12.68H6.00766V14.6H10.8277V15.53ZM3.79766 9.78C3.79766 8.52 4.72766 7.6 6.14766 7.6C7.57766 7.6 8.49766 8.52 8.49766 9.78C8.49766 11.05 7.57766 11.96 6.14766 11.96C4.72766 11.96 3.79766 11.05 3.79766 9.78ZM4.98766 9.78C4.98766 10.48 5.43766 10.99 6.14766 10.99C6.86766 10.99 7.31766 10.48 7.31766 9.78C7.31766 9.1 6.86766 8.59 6.14766 8.59C5.43766 8.59 4.98766 9.1 4.98766 9.78ZM12.61 8.55V7.59H17.31V8.55H15.6C15.62 9.91 16.56 10.9 17.58 11.23L16.94 12.15C16.26 11.9 15.39 11.16 15.01 10.34C14.74 11.21 13.8 12.1 12.94 12.4L12.25 11.48C13.54 11.01 14.4 9.93 14.4 8.58V8.55H12.61ZM19.67 13.34H18.5V10.19H17.16V9.25H18.5V6.88H19.67V13.34ZM19.86 15.55H13.71V12.74H14.89V14.63H19.86V15.55Z" fill="white"/>
</svg>
