<svg width="20" height="20" viewBox="0 0 20 20" fill="none" xmlns="http://www.w3.org/2000/svg">
<circle cx="10.5" cy="10.5" r="8.5" fill="#161616"/>
<path d="M20 9.99615C20 15.4967 15.5087 19.9846 9.99618 19.9846C4.49138 19.9846 0 15.4967 0 9.99615C0 4.48792 4.49138 0 9.99618 0C15.5087 0 20 4.48792 20 9.99615ZM8.44531 13.1262L6.69483 15.2052C6.14205 15.8573 7.03265 16.494 7.50098 15.9494L9.26681 13.855C9.43573 13.6402 9.46643 13.5942 9.52785 13.3793L9.66605 12.9497L8.73706 11.7683L8.44531 13.1262ZM8.20732 7.23436L7.30904 8.11661C7.01729 8.40812 6.92516 8.64595 6.89445 9.02186L6.79464 10.4104C6.77161 10.7556 6.95587 11.0011 7.27064 11.0165C7.60078 11.0395 7.79272 10.8477 7.82344 10.4795L7.95395 8.94514L8.39157 8.56156C8.54512 8.41581 8.76777 8.50019 8.75242 8.6843L8.65261 9.96547C8.60654 10.6176 8.76777 10.9321 9.20539 11.4845L10.4031 12.9804C10.5183 13.1262 10.5336 13.1952 10.5797 13.2873L11.8158 15.7882C12.1689 16.5094 13.2591 16.0567 12.8522 15.2743L11.6622 12.8347C11.5701 12.6582 11.4472 12.4664 11.3321 12.3053L10.5643 11.2083L10.6104 11.0548C10.8254 10.4488 10.9021 10.0806 10.9405 9.47448L11.0634 7.77905C11.1171 6.95818 10.6411 6.35213 9.81191 6.35213C9.20539 6.35213 8.7908 6.67434 8.20732 7.23436ZM11.5163 9.08323L11.8925 9.45915C12.0845 9.65094 12.2457 9.70464 12.5989 9.70464H13.8657C14.2112 9.70464 14.4338 9.50517 14.4338 9.18297C14.4338 8.86842 14.2112 8.66897 13.8657 8.66897H12.4991L11.6238 7.69466L11.5163 9.08323ZM9.22843 4.58764C9.22843 5.26275 9.78121 5.82277 10.4722 5.82277C11.1555 5.82277 11.7083 5.26275 11.7083 4.58764C11.7083 3.8972 11.1555 3.34484 10.4722 3.34484C9.78121 3.34484 9.22843 3.8972 9.22843 4.58764Z" fill="white"/>
</svg>
