<svg width="28" height="28" viewBox="0 0 28 28" fill="none" xmlns="http://www.w3.org/2000/svg">
<circle cx="14" cy="14" r="13" fill="black"/>
<path d="M28 14.0057C28 21.7173 21.7121 28.0004 13.9947 28.0004C6.28793 28.0004 0 21.7173 0 14.0057C0 6.30493 6.28793 0.0218506 13.9947 0.0218506C21.7121 0.0218506 28 6.30493 28 14.0057ZM15.7682 16.6264C17.4019 16.6156 19.8311 17.4211 19.8311 18.5489C19.8311 19.8377 17.3805 20.7614 13.9947 20.7614C10.5981 20.7614 8.15816 19.8377 8.15816 18.5489C8.15816 17.4211 10.5981 16.6156 12.2211 16.6264V15.4342C10.0069 15.4235 6.64263 16.6264 6.64263 18.6885C6.64263 20.4821 9.45876 22.0181 13.9947 22.0181C18.5413 22.0181 21.3574 20.4821 21.3574 18.6885C21.3574 16.6264 17.9931 15.4235 15.7682 15.4342V16.6264ZM11.1678 8.00191C11.1678 9.32295 12.0707 10.4399 13.2853 10.7622V16.2397C13.2853 18.2159 13.6184 19.3114 13.9947 19.3114C14.3816 19.3114 14.7148 18.2374 14.7148 16.2397V10.7622C15.9294 10.4399 16.8215 9.32295 16.8215 8.00191C16.8215 6.4338 15.5747 5.17721 13.9947 5.17721C12.4146 5.17721 11.1678 6.4338 11.1678 8.00191ZM14.0914 7.19637C14.0914 7.70118 13.6937 8.09856 13.1885 8.09856C12.7371 8.09856 12.3071 7.70118 12.3071 7.19637C12.3071 6.71307 12.7263 6.31566 13.1885 6.31566C13.6937 6.31566 14.0914 6.71307 14.0914 7.19637Z" fill="#F5F5F5"/>
</svg>
