<svg width="36" height="46" viewBox="0 0 36 46" fill="none" xmlns="http://www.w3.org/2000/svg">
<g filter="url(#filter0_f_2047_10860)">
<ellipse cx="18.0001" cy="42.4285" rx="5.99989" ry="2.14282" fill="black" fill-opacity="0.2"/>
</g>
<path fill-rule="evenodd" clip-rule="evenodd" d="M18 0C27.9411 0 36 8.05888 36 18C36 25.6222 31.2624 32.1378 24.5711 34.7629L19.0252 42.3434C18.9096 42.5021 18.7561 42.6316 18.5777 42.721C18.3992 42.8105 18.2011 42.8571 18 42.8571C17.7989 42.8571 17.6008 42.8105 17.4223 42.721C17.2439 42.6316 17.0904 42.5021 16.9748 42.3434L11.4289 34.7629C4.73765 32.1378 0 25.6222 0 18C0 8.05888 8.05888 0 18 0Z" fill="#0367FB"/>
<path d="M32.5718 17.9999C32.5718 9.95245 26.048 3.42871 18.0006 3.42871C9.95318 3.42871 3.42944 9.95245 3.42944 17.9999C3.42944 26.0473 9.95318 32.5711 18.0006 32.5711C26.048 32.5711 32.5718 26.0473 32.5718 17.9999Z" fill="#0367FB"/>
<path d="M17.0277 22.6006H10.5577V20.5206H15.5177V20.1206H10.5577V19.2606H13.0677V18.8306H9.64766V17.9606H17.6977V18.8306H14.2377V19.2606H16.6777V21.3306H11.7377V21.7406H17.0277V22.6006ZM17.3477 16.8106L16.8977 17.7306C16.2177 17.6839 15.571 17.5473 14.9577 17.3206C14.351 17.0939 13.921 16.8106 13.6677 16.4706C13.4143 16.8239 12.991 17.1139 12.3977 17.3406C11.811 17.5673 11.1577 17.6973 10.4377 17.7306L9.96766 16.8106C10.641 16.8173 11.2477 16.7373 11.7877 16.5706C12.3343 16.4039 12.7143 16.1839 12.9277 15.9106H10.4377V15.0306H16.8977V15.9106H14.4377C14.6577 16.1773 15.0377 16.3939 15.5777 16.5606C16.1243 16.7206 16.7143 16.8039 17.3477 16.8106ZM12.1877 14.6906V13.8106H15.1477V14.6906H12.1877ZM22.74 17.9506H18.53V14.0906H19.68V15.2106H21.57V14.0706H22.74V17.9506ZM21.57 17.0406V16.1306H19.68V17.0406H21.57ZM26.52 16.5406H25.27V18.2706H24.08V13.7506H25.27V15.5806H26.52V16.5406ZM25.52 22.5906H19.45V20.2306H24.08V19.6606H19.38V18.7306H25.27V21.0906H20.61V21.6506H25.52V22.5906Z" fill="white"/>
<defs>
<filter id="filter0_f_2047_10860" x="11.0321" y="39.3175" width="13.936" height="6.22192" filterUnits="userSpaceOnUse" color-interpolation-filters="sRGB">
<feFlood flood-opacity="0" result="BackgroundImageFix"/>
<feBlend mode="normal" in="SourceGraphic" in2="BackgroundImageFix" result="shape"/>
<feGaussianBlur stdDeviation="0.484068" result="effect1_foregroundBlur_2047_10860"/>
</filter>
</defs>
</svg>
