<svg width="28" height="28" viewBox="0 0 28 28" fill="none" xmlns="http://www.w3.org/2000/svg">
<circle cx="14" cy="14" r="13" fill="black"/>
<path d="M28 13.9946C28 21.6954 21.7121 27.9784 13.9947 27.9784C6.28793 27.9784 0 21.6954 0 13.9946C0 6.28309 6.28793 0 13.9947 0C21.7121 0 28 6.28309 28 13.9946ZM11.8234 18.3767L9.37276 21.2873C8.59887 22.2003 9.84571 23.0916 10.5014 22.3292L12.9735 19.397C13.21 19.0963 13.253 19.0318 13.339 18.7311L13.5325 18.1296L12.2319 16.4756L11.8234 18.3767ZM11.4902 10.1281L10.2327 11.3633C9.8242 11.7714 9.69523 12.1043 9.65224 12.6306L9.5125 14.5746C9.48025 15.0579 9.73822 15.4016 10.1789 15.4231C10.6411 15.4553 10.9098 15.1868 10.9528 14.6713L11.1355 12.5232L11.7482 11.9862C11.9632 11.7821 12.2749 11.9003 12.2534 12.158L12.1137 13.9517C12.0492 14.8646 12.2749 15.3049 12.8875 16.0782L14.5643 18.1726C14.7256 18.3767 14.7471 18.4733 14.8116 18.6022L16.5421 22.1035C17.0365 23.1131 18.5628 22.4794 17.9931 21.384L16.3271 17.9685C16.1981 17.7215 16.0261 17.453 15.8649 17.2275L14.7901 15.6916L14.8545 15.4768C15.1555 14.6283 15.263 14.1128 15.3167 13.2643L15.4887 10.8907C15.5639 9.74146 14.8975 8.89298 13.7367 8.89298C12.8875 8.89298 12.3071 9.34408 11.4902 10.1281ZM16.1229 12.7165L16.6496 13.2428C16.9183 13.5113 17.144 13.5865 17.6384 13.5865H19.4119C19.8956 13.5865 20.2073 13.3072 20.2073 12.8562C20.2073 12.4158 19.8956 12.1366 19.4119 12.1366H17.4987L16.2734 10.7725L16.1229 12.7165ZM12.9198 6.4227C12.9198 7.36785 13.6937 8.15188 14.6611 8.15188C15.6177 8.15188 16.3916 7.36785 16.3916 6.4227C16.3916 5.45608 15.6177 4.68278 14.6611 4.68278C13.6937 4.68278 12.9198 5.45608 12.9198 6.4227Z" fill="#F5F5F5"/>
</svg>
