<svg width="31" height="40" viewBox="0 0 31 40" fill="none" xmlns="http://www.w3.org/2000/svg">
<g filter="url(#filter0_f_4445_869)">
<ellipse cx="15.5002" cy="36.5356" rx="5.16658" ry="1.84521" fill="black" fill-opacity="0.2"/>
</g>
<path fill-rule="evenodd" clip-rule="evenodd" d="M15.5 0C24.0604 0 31 6.93959 31 15.5C31 22.0636 26.9204 27.6743 21.1585 29.9347L16.3828 36.4624C16.2833 36.599 16.1511 36.7106 15.9974 36.7876C15.8438 36.8646 15.6732 36.9048 15.5 36.9048C15.3268 36.9048 15.1562 36.8646 15.0026 36.7876C14.8489 36.7106 14.7167 36.599 14.6172 36.4624L9.84151 29.9347C4.07964 27.6743 0 22.0636 0 15.5C0 6.93959 6.93959 0 15.5 0Z" fill="#0367FB"/>
<path d="M28.0479 15.4999C28.0479 8.57018 22.4303 2.95251 15.5005 2.95251C8.57079 2.95251 2.95312 8.57018 2.95312 15.4999C2.95312 22.4296 8.57079 28.0473 15.5005 28.0473C22.4303 28.0473 28.0479 22.4296 28.0479 15.4999Z" fill="#0367FB"/>
<path d="M14.5077 11.6667V18.1267H13.3477V15.9467H12.0777V14.9967H13.3477V13.9967H12.0777V13.0367H13.3477V11.6667H14.5077ZM11.6277 16.6767H7.42766V12.2267H8.60766V13.5967H10.4677V12.2067H11.6277V16.6767ZM10.4677 15.7467V14.5167H8.60766V15.7467H10.4677ZM14.7077 20.3367H8.64766V17.5867H9.80766V19.4167H14.7077V20.3367ZM23.23 18.7667C23.23 19.8667 22.11 20.5767 20.17 20.5767C18.25 20.5767 17.14 19.8667 17.14 18.7667C17.14 17.6567 18.25 16.9567 20.17 16.9567C22.11 16.9567 23.23 17.6567 23.23 18.7667ZM23.17 16.8367H22V15.8667H20.37V14.9767H22V14.0967H20.49V13.1767H22V11.6667H23.17V16.8367ZM22.02 18.7667C22.02 18.2267 21.36 17.8867 20.17 17.8867C19.03 17.8867 18.36 18.2267 18.36 18.7667C18.36 19.3167 19.03 19.6367 20.17 19.6367C21.36 19.6367 22.02 19.3167 22.02 18.7667ZM20.36 12.2467C20.26 14.7167 18.74 16.1767 16.41 16.9067L15.79 15.9667C17.35 15.6167 18.74 14.6867 19.06 13.2167H16.22V12.2467H20.36Z" fill="white"/>
<defs>
<filter id="filter0_f_4445_869" x="9.36548" y="33.7223" width="12.2694" height="5.6267" filterUnits="userSpaceOnUse" color-interpolation-filters="sRGB">
<feFlood flood-opacity="0" result="BackgroundImageFix"/>
<feBlend mode="normal" in="SourceGraphic" in2="BackgroundImageFix" result="shape"/>
<feGaussianBlur stdDeviation="0.484068" result="effect1_foregroundBlur_4445_869"/>
</filter>
</defs>
</svg>
