<svg width="31" height="40" viewBox="0 0 31 40" fill="none" xmlns="http://www.w3.org/2000/svg">
<g filter="url(#filter0_f_4445_884)">
<ellipse cx="15.5002" cy="36.5356" rx="5.16658" ry="1.84521" fill="black" fill-opacity="0.2"/>
</g>
<path fill-rule="evenodd" clip-rule="evenodd" d="M15.5 0C24.0604 0 31 6.93959 31 15.5C31 22.0636 26.9204 27.6743 21.1585 29.9347L16.3828 36.4624C16.2833 36.599 16.1511 36.7106 15.9974 36.7876C15.8438 36.8646 15.6732 36.9048 15.5 36.9048C15.3268 36.9048 15.1562 36.8646 15.0026 36.7876C14.8489 36.7106 14.7167 36.599 14.6172 36.4624L9.84151 29.9347C4.07964 27.6743 0 22.0636 0 15.5C0 6.93959 6.93959 0 15.5 0Z" fill="#0367FB"/>
<path d="M28.0479 15.4999C28.0479 8.57018 22.4303 2.95251 15.5005 2.95251C8.57079 2.95251 2.95312 8.57018 2.95312 15.4999C2.95312 22.4296 8.57079 28.0473 15.5005 28.0473C22.4303 28.0473 28.0479 22.4296 28.0479 15.4999Z" fill="#0367FB"/>
<path d="M14.7977 18.7767C14.7977 19.8667 13.6277 20.5767 11.6877 20.5767C9.75766 20.5767 8.58766 19.8667 8.58766 18.7767C8.58766 17.6767 9.75766 16.9767 11.6877 16.9767C13.6277 16.9767 14.7977 17.6767 14.7977 18.7767ZM14.7277 17.0167H13.6177V14.8067H12.8877V16.6667H11.8077V11.8267H12.8877V13.8667H13.6177V11.6667H14.7277V17.0167ZM11.6277 15.6167L11.0377 16.4967C10.4477 16.2367 9.65766 15.5167 9.42766 14.9467C9.17766 15.6367 8.47766 16.4267 7.70766 16.7767L7.06766 15.9467C8.14766 15.3467 8.82766 14.3667 8.82766 13.1067V12.2267H9.95766V13.0767C9.95766 14.3167 10.7077 15.1867 11.6277 15.6167ZM13.6077 18.7767C13.6077 18.2467 12.8677 17.9167 11.6877 17.9167C10.5277 17.9167 9.79766 18.2467 9.79766 18.7767C9.79766 19.3167 10.5277 19.6367 11.6877 19.6367C12.8677 19.6367 13.6077 19.3167 13.6077 18.7767ZM23.17 16.8667H22V14.4467H20.48V13.5167H22V11.6667H23.17V16.8667ZM21.13 15.6167L20.46 16.5267C19.79 16.2567 18.87 15.5467 18.48 14.7167C18.21 15.6267 17.24 16.4667 16.41 16.7467L15.71 15.8167C17 15.3467 17.86 14.3067 17.86 12.9567V12.0767H19.07V12.8967C19.07 14.2767 20.09 15.2767 21.13 15.6167ZM23.23 18.7767C23.23 19.8567 22.11 20.5667 20.16 20.5667C18.24 20.5667 17.13 19.8567 17.13 18.7767C17.13 17.6667 18.24 16.9667 20.16 16.9667C22.11 16.9667 23.23 17.6667 23.23 18.7767ZM20.16 17.9067C19.01 17.9067 18.33 18.2367 18.33 18.7767C18.33 19.3067 19.01 19.6267 20.16 19.6267C21.36 19.6267 22.02 19.3067 22.02 18.7767C22.02 18.2367 21.36 17.9067 20.16 17.9067Z" fill="white"/>
<defs>
<filter id="filter0_f_4445_884" x="9.36548" y="33.7223" width="12.2694" height="5.6267" filterUnits="userSpaceOnUse" color-interpolation-filters="sRGB">
<feFlood flood-opacity="0" result="BackgroundImageFix"/>
<feBlend mode="normal" in="SourceGraphic" in2="BackgroundImageFix" result="shape"/>
<feGaussianBlur stdDeviation="0.484068" result="effect1_foregroundBlur_4445_884"/>
</filter>
</defs>
</svg>
