<svg width="31" height="40" viewBox="0 0 31 40" fill="none" xmlns="http://www.w3.org/2000/svg">
<g filter="url(#filter0_f_4445_873)">
<ellipse cx="15.5002" cy="36.5356" rx="5.16658" ry="1.84521" fill="black" fill-opacity="0.2"/>
</g>
<path fill-rule="evenodd" clip-rule="evenodd" d="M15.5 0C24.0604 0 31 6.93959 31 15.5C31 22.0636 26.9204 27.6743 21.1585 29.9347L16.3828 36.4624C16.2833 36.599 16.1511 36.7106 15.9974 36.7876C15.8438 36.8646 15.6732 36.9048 15.5 36.9048C15.3268 36.9048 15.1562 36.8646 15.0026 36.7876C14.8489 36.7106 14.7167 36.599 14.6172 36.4624L9.84151 29.9347C4.07964 27.6743 0 22.0636 0 15.5C0 6.93959 6.93959 0 15.5 0Z" fill="#0367FB"/>
<path d="M28.0479 15.4999C28.0479 8.57018 22.4303 2.95251 15.5005 2.95251C8.57079 2.95251 2.95312 8.57018 2.95312 15.4999C2.95312 22.4296 8.57079 28.0473 15.5005 28.0473C22.4303 28.0473 28.0479 22.4296 28.0479 15.4999Z" fill="#0367FB"/>
<path d="M11.5377 17.6767L10.8777 18.5167C10.2977 18.1467 9.54766 17.2367 9.32766 16.4467C9.11766 17.2767 8.35766 18.3067 7.63766 18.7167L6.92766 17.9267C8.19766 17.0867 8.76766 15.8167 8.76766 14.0567V13.6267H7.26766V12.6967H11.2877V13.6267H9.89766V14.0367C9.89766 15.7767 10.4777 17.0467 11.5377 17.6767ZM12.9477 20.1667H11.8577V15.6967H10.6977V14.7367H11.8577V11.8367H12.9477V20.1667ZM14.7377 20.5767H13.6277V11.6667H14.7377V20.5767ZM23.17 20.5767H22V16.1067H20.3V15.1267H22V11.6667H23.17V20.5767ZM20.33 12.5967C20.26 15.2867 19.07 17.5167 16.35 19.0067L15.63 18.1267C17.58 17.2367 18.9 15.3367 19.06 13.5667H16.18V12.5967H20.33Z" fill="white"/>
<defs>
<filter id="filter0_f_4445_873" x="9.36548" y="33.7223" width="12.2694" height="5.6267" filterUnits="userSpaceOnUse" color-interpolation-filters="sRGB">
<feFlood flood-opacity="0" result="BackgroundImageFix"/>
<feBlend mode="normal" in="SourceGraphic" in2="BackgroundImageFix" result="shape"/>
<feGaussianBlur stdDeviation="0.484068" result="effect1_foregroundBlur_4445_873"/>
</filter>
</defs>
</svg>
