<svg width="31" height="40" viewBox="0 0 31 40" fill="none" xmlns="http://www.w3.org/2000/svg">
<g filter="url(#filter0_f_2047_5659)">
<ellipse cx="15.5002" cy="36.5356" rx="5.16658" ry="1.84521" fill="black" fill-opacity="0.2"/>
</g>
<path fill-rule="evenodd" clip-rule="evenodd" d="M15.5 0C24.0604 0 31 6.93959 31 15.5C31 22.0636 26.9204 27.6743 21.1585 29.9347L16.3828 36.4624C16.2833 36.599 16.1511 36.7106 15.9974 36.7876C15.8438 36.8646 15.6732 36.9048 15.5 36.9048C15.3268 36.9048 15.1562 36.8646 15.0026 36.7876C14.8489 36.7106 14.7167 36.599 14.6172 36.4624L9.84151 29.9347C4.07964 27.6743 0 22.0636 0 15.5C0 6.93959 6.93959 0 15.5 0Z" fill="#0367FB"/>
<path d="M28.0479 15.4999C28.0479 8.57018 22.4303 2.95251 15.5005 2.95251C8.57079 2.95251 2.95312 8.57018 2.95312 15.4999C2.95312 22.4296 8.57079 28.0473 15.5005 28.0473C22.4303 28.0473 28.0479 22.4296 28.0479 15.4999Z" fill="#0367FB"/>
<g clip-path="url(#clip0_2047_5659)">
<path d="M11.5088 17.3155L10.8488 18.1555C10.5422 17.9622 10.2322 17.6655 9.91885 17.2655C9.61218 16.8589 9.40551 16.4655 9.29885 16.0855C9.19218 16.4989 8.97218 16.9289 8.63885 17.3755C8.31218 17.8222 7.96885 18.1489 7.60885 18.3555L6.89885 17.5655C8.12551 16.7522 8.73885 15.4622 8.73885 13.6955V13.2655H7.23885V12.3355H11.2588V13.2655H9.86885V13.6755C9.86885 14.5422 10.0088 15.2889 10.2888 15.9155C10.5688 16.5355 10.9755 17.0022 11.5088 17.3155ZM12.9188 19.8055H11.8288V15.3355H10.6688V14.3755H11.8288V11.4755H12.9188V19.8055ZM14.7088 20.2155H13.5988V11.3055H14.7088V20.2155ZM23.8212 19.1055H15.7712V18.1755H19.1912V16.4455H16.7412V11.9155H17.9012V13.2955H21.6912V11.8955H22.8612V16.4455H20.3612V18.1755H23.8212V19.1055ZM21.6912 15.5155V14.1955H17.9012V15.5155H21.6912Z" fill="white"/>
</g>
<defs>
<filter id="filter0_f_2047_5659" x="9.36548" y="33.7223" width="12.2694" height="5.6267" filterUnits="userSpaceOnUse" color-interpolation-filters="sRGB">
<feFlood flood-opacity="0" result="BackgroundImageFix"/>
<feBlend mode="normal" in="SourceGraphic" in2="BackgroundImageFix" result="shape"/>
<feGaussianBlur stdDeviation="0.484068" result="effect1_foregroundBlur_2047_5659"/>
</filter>
<clipPath id="clip0_2047_5659">
<rect width="19" height="14.6389" fill="white" transform="translate(6 5.16663)"/>
</clipPath>
</defs>
</svg>
