<svg width="20" height="20" viewBox="0 0 20 20" fill="none" xmlns="http://www.w3.org/2000/svg">
<circle cx="10" cy="10" r="8.5" fill="white"/>
<path d="M20 10C20 15.5228 15.5228 20 10 20C4.47715 20 0 15.5228 0 10C0 4.47715 4.47715 0 10 0C15.5228 0 20 4.47715 20 10ZM8.5 13L7 15C6.5 15.5 7.5 16 8 15.5L9.5 14C9.7 13.7 9.8 13.6 9.9 13.3L10 13L9 12L8.5 13ZM8.3 7.2L7.5 8C7.3 8.2 7.2 8.5 7.2 9L7.1 10.4C7 10.8 7.3 11 7.6 11C8 11 8.2 10.8 8.2 10.5L8.3 9L8.7 8.6C8.8 8.4 9 8.5 9 8.7L9 10C9 10.6 9.2 10.9 9.6 11.4L10.8 13C10.9 13.1 11 13.2 11.1 13.3L12.3 16C12.7 16.5 13.7 16 13.3 15.3L12.2 13C12.1 12.8 12 12.5 11.8 12.3L11 11.2L11.1 11C11.3 10.4 11.4 10.1 11.4 9.5L11.5 7.8C11.6 7 11.1 6.4 10.3 6.4C9.7 6.4 9.3 6.7 8.7 7.2ZM12 9L12.4 9.4C12.6 9.6 12.7 9.7 13 9.7H14.4C14.7 9.7 15 9.5 15 9.2C15 8.9 14.7 8.7 14.4 8.7H13L12 7.7L12 9ZM9.7 4.5C9.7 5.2 10.3 5.8 11 5.8C11.7 5.8 12.2 5.2 12.2 4.5C12.2 3.9 11.7 3.3 11 3.3C10.3 3.3 9.7 3.9 9.7 4.5Z" fill="#0367FB"/>
</svg>
