<svg
  width="25"
  height="25"
  viewBox="0 0 25 25"
  xmlns="http://www.w3.org/2000/svg"
>
  <!-- 배경 없이, 사람 모양만 흰색으로 채우기 -->
  <path
    fill="#FFFFFF"
    d="
      M10.6344 16.2699
      L8.53379 18.7647
      C7.87046 19.5472 8.93918 20.3112 9.50117 19.6577
      L11.6202 17.1444
      C11.8229 16.8867 11.8597 16.8314 11.9334 16.5736
      L12.0993 16.0581
      L10.9845 14.6404
      L10.6344 16.2699
      Z

      M10.3488 9.19967
      L9.27085 10.2584
      C8.92075 10.6082 8.8102 10.8936 8.77335 11.3447
      L8.65357 13.011
      C8.62593 13.4252 8.84705 13.7198 9.22477 13.7382
      C9.62093 13.7658 9.85126 13.5357 9.88813 13.0938
      L10.0447 11.2526
      L10.5699 10.7923
      C10.7541 10.6174 11.0213 10.7187 11.0029 10.9396
      L10.8831 12.477
      C10.8278 13.2595 11.0213 13.637 11.5465 14.2998
      L12.9837 16.095
      C13.1219 16.2699 13.1403 16.3527 13.1956 16.4632
      L14.6789 19.4643
      C15.1027 20.3297 16.411 19.7865 15.9227 18.8475
      L14.4947 15.92
      C14.3841 15.7083 14.2367 15.4781 14.0985 15.2848
      L13.1772 13.9684
      L13.2325 13.7842
      C13.4904 13.057 13.5826 12.6151 13.6286 11.8878
      L13.776 9.85329
      C13.8405 8.86825 13.2693 8.14098 12.2743 8.14098
      C11.5465 8.14098 11.049 8.52764 10.3488 9.19967
      Z

      M14.3196 11.4183
      L14.7711 11.8694
      C15.0014 12.0996 15.1949 12.164 15.6187 12.164
      H17.1388
      C17.5534 12.164 17.8206 11.9246 17.8206 11.538
      C17.8206 11.1605 17.5534 10.9212 17.1388 10.9212
      H15.4989
      L14.4486 9.75203
      L14.3196 11.4183
      Z

      M11.5741 6.0236
      C11.5741 6.83373 12.2374 7.50576 13.0666 7.50576
      C13.8866 7.50576 14.5499 6.83373 14.5499 6.0236
      C14.5499 5.19507 13.8866 4.53225 13.0666 4.53225
      C12.2374 4.53225 11.5741 5.19507 11.5741 6.0236
      Z
    "
  />
</svg>