<svg width="20" height="20" viewBox="0 0 20 20" fill="none" xmlns="http://www.w3.org/2000/svg">
<g clip-path="url(#clip0_4249_4801)">
<path fill-rule="evenodd" clip-rule="evenodd" d="M8.02355 5.49122C8.64346 5.43271 9.12509 4.8867 9.12509 4.24805C9.12509 3.56065 8.57669 3 7.90433 3C7.23196 3 6.68359 3.56065 6.68359 4.24805C6.68359 4.45768 6.7408 4.67218 6.83618 4.85257L7.27115 11.11L11.751 11.1112L13.5884 15.5127L16.0008 14.5455L15.6273 13.636L14.2772 14.1343L12.4994 9.93808L8.33408 9.96669L8.2769 9.17424L11.2922 9.17547V8.00295L8.16188 8.0017L8.02355 5.49122Z" fill="white"/>
<path fill-rule="evenodd" clip-rule="evenodd" d="M12.5282 14.4651C11.7721 15.9932 10.1896 16.9999 8.50152 16.9999C6.02217 16.9999 4 14.9325 4 12.3977C4 10.618 5.05505 8.96411 6.62939 8.23096L6.73127 9.5902C5.8001 10.1901 5.22607 11.2725 5.22607 12.4071C5.22607 14.2459 6.693 15.7456 8.49157 15.7456C10.1371 15.7456 11.5402 14.4545 11.7316 12.7983L12.5282 14.4651Z" fill="white"/>
</g>
<defs>
<clipPath id="clip0_4249_4801">
<rect width="12" height="14" fill="white" transform="translate(4 3)"/>
</clipPath>
</defs>
</svg>
