<svg width="20" height="20" viewBox="0 0 20 20" fill="none" xmlns="http://www.w3.org/2000/svg">
<circle cx="10" cy="10" r="9" fill="white" stroke="black" stroke-width="2"/>
<path d="M10.5983 5.06598C10.4204 4.97801 10.2112 4.97801 10.0333 5.06598L4.4862 7.81066L10.309 10.5546L16 7.73872L10.5983 5.06598Z" fill="#161616"/>
<path d="M5.89474 13.2639V9.8589L10.0443 11.8143C10.2199 11.897 10.4243 11.8951 10.5982 11.809L14.7369 9.76127V13.2639C14.7369 13.4424 14.6592 13.6128 14.5244 13.7314L14.5228 13.7328L14.5203 13.7351L14.5137 13.7407L14.5062 13.747L14.4948 13.7565C14.4796 13.769 14.4593 13.7854 14.4338 13.805C14.3829 13.8442 14.3112 13.8966 14.2188 13.9575C14.034 14.0794 13.7659 14.236 13.4144 14.3906C12.7098 14.7005 11.6754 15 10.3158 15C8.95623 15 7.92183 14.7005 7.21718 14.3906C6.8657 14.236 6.59761 14.0794 6.41282 13.9575C6.32042 13.8966 6.24874 13.8442 6.19778 13.805C6.17229 13.7854 6.15196 13.769 6.13679 13.7565C6.12921 13.7503 6.12291 13.745 6.1179 13.7407L6.11135 13.7351L6.10879 13.7328L6.1077 13.7319C6.1077 13.7319 6.10717 13.7314 6.11337 13.7244L6.10672 13.731C5.97189 13.6124 5.89474 13.4424 5.89474 13.2639Z" fill="#161616"/>
<path d="M4 8.96604L5.26316 9.56128V13.125C5.26316 13.4702 4.98039 13.75 4.63158 13.75C4.28277 13.75 4 13.4702 4 13.125V8.96604Z" fill="#161616"/>
</svg>
