<svg width="36" height="46" viewBox="0 0 36 46" fill="none" xmlns="http://www.w3.org/2000/svg">
<g filter="url(#filter0_f_2047_10868)">
<ellipse cx="18.0001" cy="42.4285" rx="5.99989" ry="2.14282" fill="black" fill-opacity="0.2"/>
</g>
<path fill-rule="evenodd" clip-rule="evenodd" d="M18 0C27.9411 0 36 8.05888 36 18C36 25.6222 31.2624 32.1378 24.5711 34.7629L19.0252 42.3434C18.9096 42.5021 18.7561 42.6316 18.5777 42.721C18.3992 42.8105 18.2011 42.8571 18 42.8571C17.7989 42.8571 17.6008 42.8105 17.4223 42.721C17.2439 42.6316 17.0904 42.5021 16.9748 42.3434L11.4289 34.7629C4.73765 32.1378 0 25.6222 0 18C0 8.05888 8.05888 0 18 0Z" fill="#0367FB"/>
<path d="M32.5718 17.9999C32.5718 9.95245 26.048 3.42871 18.0006 3.42871C9.95318 3.42871 3.42944 9.95245 3.42944 17.9999C3.42944 26.0473 9.95318 32.5711 18.0006 32.5711C26.048 32.5711 32.5718 26.0473 32.5718 17.9999Z" fill="#0367FB"/>
<path d="M16.7177 18.5606H14.2377V20.6206H17.6977V21.5406H9.64766V20.6206H13.0677V18.5606H10.6877V14.4006H16.6677V15.3306H11.8577V17.6306H16.7177V18.5606ZM23.4 18.1306C23.1467 18.5306 22.9533 18.8306 22.82 19.0306C22.4467 18.9173 22.0667 18.7139 21.68 18.4206C21.2933 18.1273 21.0167 17.8039 20.85 17.4506C20.69 17.8439 20.4133 18.2106 20.02 18.5506C19.6267 18.8906 19.2067 19.1306 18.76 19.2706C18.62 19.0706 18.4033 18.7706 18.11 18.3706C19.3233 17.9773 20.0167 17.3106 20.19 16.3706H18.49V15.4506H23.19V16.3706H21.49C21.67 17.2306 22.3067 17.8173 23.4 18.1306ZM19.4 19.6306H25.27V22.6706H24.1V20.5606H19.4V19.6306ZM26.54 17.0206H25.26V19.2106H24.1V13.7506H25.26V16.0606H26.54V17.0206ZM19.55 14.9506V14.0406H22.14V14.9506H19.55Z" fill="white"/>
<defs>
<filter id="filter0_f_2047_10868" x="11.0321" y="39.3175" width="13.936" height="6.22192" filterUnits="userSpaceOnUse" color-interpolation-filters="sRGB">
<feFlood flood-opacity="0" result="BackgroundImageFix"/>
<feBlend mode="normal" in="SourceGraphic" in2="BackgroundImageFix" result="shape"/>
<feGaussianBlur stdDeviation="0.484068" result="effect1_foregroundBlur_2047_10868"/>
</filter>
</defs>
</svg>
