<svg width="31" height="40" viewBox="0 0 31 40" fill="none" xmlns="http://www.w3.org/2000/svg">
<g filter="url(#filter0_f_4353_5483)">
<ellipse cx="15.5001" cy="36.5356" rx="5.16658" ry="1.84521" fill="black" fill-opacity="0.2"/>
</g>
<path fill-rule="evenodd" clip-rule="evenodd" d="M15.5 0C24.0604 0 31 6.93959 31 15.5C31 22.0636 26.9204 27.6743 21.1585 29.9347L16.3828 36.4624C16.2833 36.599 16.1511 36.7106 15.9974 36.7876C15.8438 36.8646 15.6732 36.9048 15.5 36.9048C15.3268 36.9048 15.1562 36.8646 15.0026 36.7876C14.8489 36.7106 14.7167 36.599 14.6172 36.4624L9.84151 29.9347C4.07964 27.6743 0 22.0636 0 15.5C0 6.93959 6.93959 0 15.5 0Z" fill="#161616"/>
<path d="M28.0479 15.4999C28.0479 8.57018 22.4303 2.95251 15.5005 2.95251C8.57079 2.95251 2.95312 8.57018 2.95312 15.4999C2.95312 22.4296 8.57079 28.0473 15.5005 28.0473C22.4303 28.0473 28.0479 22.4296 28.0479 15.4999Z" fill="#161616"/>
<path d="M16.1481 9.07258C15.9555 8.97581 15.7288 8.97581 15.5361 9.07258L9.52671 12.0917L15.8348 15.11L22 12.0126L16.1481 9.07258Z" fill="white"/>
<path d="M11.0526 18.0903V14.3448L15.5479 16.4957C15.7382 16.5867 15.9596 16.5846 16.1481 16.4899L20.6316 14.2374V18.0903C20.6316 18.2867 20.5475 18.4741 20.4014 18.6046L20.3997 18.6061L20.3969 18.6086L20.3898 18.6148L20.3817 18.6217L20.3694 18.6322C20.3529 18.6459 20.3309 18.6639 20.3033 18.6855C20.2481 18.7286 20.1704 18.7862 20.0703 18.8533C19.8702 18.9874 19.5797 19.1596 19.199 19.3296C18.4356 19.6705 17.315 20 15.8421 20C14.3692 20 13.2486 19.6705 12.4853 19.3296C12.1045 19.1596 11.8141 18.9874 11.6139 18.8533C11.5138 18.7862 11.4361 18.7286 11.3809 18.6855C11.3533 18.6639 11.3313 18.6459 11.3149 18.6322C11.3066 18.6253 11.2998 18.6194 11.2944 18.6148L11.2873 18.6086L11.2845 18.6061L11.2833 18.6051C11.2833 18.6051 11.2828 18.6046 11.2895 18.5969L11.2823 18.6041C11.1362 18.4737 11.0526 18.2867 11.0526 18.0903Z" fill="white"/>
<path d="M9 13.3626L10.3684 14.0174V17.9375C10.3684 18.3172 10.0621 18.625 9.68421 18.625C9.30633 18.625 9 18.3172 9 17.9375V13.3626Z" fill="white"/>
<defs>
<filter id="filter0_f_4353_5483" x="9.36536" y="33.7223" width="12.2693" height="5.6267" filterUnits="userSpaceOnUse" color-interpolation-filters="sRGB">
<feFlood flood-opacity="0" result="BackgroundImageFix"/>
<feBlend mode="normal" in="SourceGraphic" in2="BackgroundImageFix" result="shape"/>
<feGaussianBlur stdDeviation="0.484068" result="effect1_foregroundBlur_4353_5483"/>
</filter>
</defs>
</svg>
