<svg width="155" height="19" viewBox="0 0 155 19" fill="none" xmlns="http://www.w3.org/2000/svg">
<path d="M12.3977 0.673836C12.7621 0.673836 13.0519 0.798038 13.2672 1.04644C13.4824 1.27828 13.5901 1.57637 13.5901 1.94069V11.3552C13.5901 12.68 13.3003 13.8641 12.7207 14.9074C12.1411 15.9506 11.3462 16.7704 10.336 17.3665C9.32583 17.9462 8.15833 18.236 6.83351 18.236C5.52525 18.236 4.35776 17.9462 3.33102 17.3665C2.32085 16.7704 1.51768 15.9506 0.921511 14.9074C0.341903 13.8641 0.0520988 12.68 0.0520988 11.3552V1.94069C0.0520988 1.57637 0.1763 1.27828 0.424704 1.04644C0.673107 0.798038 0.996032 0.673836 1.39348 0.673836C1.70812 0.673836 1.98965 0.798038 2.23805 1.04644C2.50301 1.27828 2.63549 1.57637 2.63549 1.94069V11.3552C2.63549 12.2329 2.82594 13.0029 3.20682 13.6653C3.60427 14.3112 4.12591 14.8245 4.77176 15.2054C5.41761 15.5698 6.10486 15.7519 6.83351 15.7519C7.6284 15.7519 8.35705 15.5698 9.01946 15.2054C9.68187 14.8245 10.2118 14.3112 10.6092 13.6653C11.0232 13.0029 11.2303 12.2329 11.2303 11.3552V1.94069C11.2303 1.57637 11.3296 1.27828 11.5283 1.04644C11.7436 0.798038 12.0334 0.673836 12.3977 0.673836ZM30.1836 0.698676C30.5148 0.698676 30.7798 0.814598 30.9785 1.04644C31.1938 1.26172 31.3014 1.53497 31.3014 1.86617V16.8201C31.3014 17.1844 31.1772 17.4907 30.9288 17.7391C30.697 17.971 30.3989 18.0869 30.0346 18.0869C29.869 18.0869 29.6868 18.0538 29.4881 17.9876C29.3059 17.9213 29.1652 17.8302 29.0658 17.7143L18.8564 4.47441L19.4278 4.15148V16.9443C19.4278 17.2589 19.3201 17.5321 19.1048 17.764C18.8895 17.9793 18.6163 18.0869 18.2851 18.0869C17.9373 18.0869 17.6558 17.9793 17.4405 17.764C17.2418 17.5321 17.1424 17.2589 17.1424 16.9443V1.96553C17.1424 1.58465 17.2666 1.27828 17.515 1.04644C17.7635 0.814598 18.0615 0.698676 18.4093 0.698676C18.5915 0.698676 18.7819 0.740077 18.9806 0.822878C19.1959 0.889119 19.3532 0.996761 19.4526 1.1458L29.4136 14.1125L29.041 14.4602V1.86617C29.041 1.53497 29.1486 1.26172 29.3639 1.04644C29.5792 0.814598 29.8524 0.698676 30.1836 0.698676ZM37.4717 16.8201C37.4552 17.1844 37.3144 17.4907 37.0495 17.7391C36.8011 17.971 36.503 18.0869 36.1552 18.0869C35.7743 18.0869 35.4597 17.971 35.2113 17.7391C34.9794 17.4907 34.8635 17.1844 34.8635 16.8201V1.96553C34.8635 1.60121 34.9877 1.30313 35.2361 1.07128C35.4845 0.822878 35.8074 0.698676 36.2049 0.698676C36.5361 0.698676 36.8259 0.822878 37.0743 1.07128C37.3393 1.30313 37.4717 1.60121 37.4717 1.96553V16.8201ZM42.4796 18.0869C42.0821 18.0869 41.7344 17.971 41.4363 17.7391C41.1382 17.4907 40.9892 17.1844 40.9892 16.8201V1.96553C40.9892 1.60121 41.1134 1.30313 41.3618 1.07128C41.6102 0.822878 41.9083 0.698676 42.256 0.698676H49.261C50.1553 0.698676 50.975 0.92224 51.7202 1.36937C52.4654 1.79993 53.0616 2.40438 53.5087 3.18271C53.9724 3.94448 54.2042 4.82217 54.2042 5.81579C54.2042 6.4782 54.0717 7.11576 53.8068 7.72849C53.5418 8.32466 53.1858 8.85459 52.7386 9.31827C52.2915 9.78196 51.7864 10.1297 51.2234 10.3616L50.9501 9.8896C51.4635 10.0718 51.9106 10.3367 52.2915 10.6845C52.6724 11.0157 52.9705 11.4131 53.1858 11.8768C53.4176 12.324 53.5418 12.8373 53.5584 13.4169C53.6081 13.9303 53.6495 14.3609 53.6826 14.7086C53.7323 15.0398 53.7985 15.3131 53.8813 15.5284C53.9641 15.7436 54.1131 15.9092 54.3284 16.0252C54.6265 16.1908 54.8087 16.4392 54.8749 16.7704C54.9577 17.1016 54.8915 17.3997 54.6762 17.6646C54.5272 17.8634 54.3367 17.9958 54.1049 18.0621C53.8896 18.1118 53.666 18.12 53.4342 18.0869C53.2023 18.0372 53.0036 17.971 52.838 17.8882C52.573 17.7226 52.2998 17.4907 52.0183 17.1927C51.7533 16.878 51.538 16.4475 51.3724 15.901C51.2068 15.3545 51.124 14.6341 51.124 13.7399C51.124 13.3258 51.0578 12.9698 50.9253 12.6717C50.7928 12.3736 50.6107 12.1335 50.3788 11.9514C50.147 11.7526 49.8737 11.6119 49.5591 11.5291C49.2444 11.4297 48.8967 11.38 48.5158 11.38H43.2496L43.5974 10.8832V16.8201C43.5974 17.1844 43.498 17.4907 43.2993 17.7391C43.1006 17.971 42.8274 18.0869 42.4796 18.0869ZM43.2745 9.21891H49.2113C49.5922 9.20235 49.9565 9.05331 50.3043 8.77179C50.6686 8.4737 50.9584 8.07626 51.1737 7.57945C51.4055 7.08264 51.5215 6.5196 51.5215 5.89031C51.5215 5.09542 51.2813 4.43301 50.8011 3.90308C50.3374 3.35659 49.7826 3.08335 49.1368 3.08335H43.3242L43.5974 2.4375V9.74056L43.2745 9.21891ZM73.0058 9.3928C73.0058 10.6514 72.7988 11.8271 72.3848 12.9201C71.9708 13.9965 71.3829 14.9405 70.6212 15.7519C69.876 16.5634 68.99 17.2009 67.9633 17.6646C66.9365 18.1118 65.8104 18.3353 64.585 18.3353C63.3761 18.3353 62.2583 18.1118 61.2315 17.6646C60.2048 17.2009 59.3105 16.5634 58.5488 15.7519C57.8036 14.9405 57.2239 13.9965 56.8099 12.9201C56.4125 11.8271 56.2138 10.6514 56.2138 9.3928C56.2138 8.13422 56.4125 6.96672 56.8099 5.89031C57.2239 4.79733 57.8036 3.84512 58.5488 3.03367C59.3105 2.22222 60.2048 1.59293 61.2315 1.1458C62.2583 0.682116 63.3761 0.450273 64.585 0.450273C65.8104 0.450273 66.9365 0.682116 67.9633 1.1458C68.99 1.59293 69.876 2.22222 70.6212 3.03367C71.3829 3.84512 71.9708 4.79733 72.3848 5.89031C72.7988 6.96672 73.0058 8.13422 73.0058 9.3928ZM70.3231 9.3928C70.3231 8.16734 70.0747 7.06608 69.5779 6.08903C69.0976 5.11198 68.4269 4.34193 67.5658 3.77888C66.7047 3.21583 65.7111 2.93431 64.585 2.93431C63.4754 2.93431 62.4901 3.21583 61.629 3.77888C60.7678 4.34193 60.0971 5.11198 59.6169 6.08903C59.1367 7.04952 58.8965 8.15078 58.8965 9.3928C58.8965 10.6183 59.1367 11.7195 59.6169 12.6966C60.0971 13.6736 60.7678 14.4437 61.629 15.0067C62.4901 15.5698 63.4754 15.8513 64.585 15.8513C65.7111 15.8513 66.7047 15.5698 67.5658 15.0067C68.4269 14.4437 69.0976 13.6736 69.5779 12.6966C70.0747 11.7195 70.3231 10.6183 70.3231 9.3928ZM88.1848 3.92792L82.5958 17.3417C82.4964 17.6067 82.3474 17.8137 82.1486 17.9627C81.9499 18.1118 81.7264 18.1863 81.478 18.1863C81.1136 18.1863 80.8404 18.0869 80.6582 17.8882C80.4761 17.6729 80.3767 17.4079 80.3601 17.0933C80.3601 16.9774 80.385 16.8449 80.4347 16.6959L86.7441 1.44389C86.86 1.16236 87.0256 0.94708 87.2409 0.798038C87.4728 0.648996 87.7212 0.582755 87.9861 0.599315C88.2345 0.599315 88.4664 0.673836 88.6817 0.822878C88.8969 0.97192 89.0543 1.17892 89.1536 1.44389L95.3885 16.4723C95.4548 16.6379 95.4879 16.8035 95.4879 16.9691C95.4879 17.3334 95.3637 17.6315 95.1153 17.8634C94.8835 18.0786 94.6185 18.1863 94.3204 18.1863C94.072 18.1863 93.8402 18.1118 93.6249 17.9627C93.4262 17.7971 93.2771 17.5901 93.1778 17.3417L87.539 4.00244L88.1848 3.92792ZM83.5894 13.8144L84.7072 11.4297H91.737L92.1593 13.8144H83.5894ZM104.743 0.698676C105.952 0.698676 107.02 0.93052 107.948 1.39421C108.875 1.84133 109.645 2.47062 110.258 3.28207C110.887 4.07696 111.359 5.00434 111.674 6.06419C111.989 7.10748 112.146 8.21702 112.146 9.3928C112.146 10.9991 111.864 12.4647 111.301 13.7895C110.738 15.0978 109.91 16.1411 108.817 16.9194C107.724 17.6977 106.366 18.0869 104.743 18.0869H98.6824C98.3346 18.0869 98.0366 17.971 97.7882 17.7391C97.5397 17.4907 97.4155 17.1844 97.4155 16.8201V1.96553C97.4155 1.60121 97.5397 1.30313 97.7882 1.07128C98.0366 0.822878 98.3346 0.698676 98.6824 0.698676H104.743ZM104.495 15.7022C105.671 15.7022 106.623 15.4124 107.352 14.8328C108.08 14.2532 108.61 13.4915 108.941 12.5475C109.289 11.587 109.463 10.5355 109.463 9.3928C109.463 8.54822 109.364 7.75333 109.165 7.00812C108.983 6.24635 108.685 5.57566 108.271 4.99606C107.873 4.39989 107.36 3.9362 106.731 3.605C106.118 3.25723 105.373 3.08335 104.495 3.08335H99.8002L100.024 2.85979V15.9506L99.8747 15.7022H104.495ZM115.992 0.673836C116.19 0.673836 116.397 0.723517 116.613 0.822878C116.828 0.92224 116.994 1.063 117.109 1.24516L123.419 10.8584L122.351 10.8087L128.784 1.24516C129.049 0.864279 129.389 0.673836 129.803 0.673836C130.134 0.673836 130.424 0.798038 130.672 1.04644C130.937 1.27828 131.07 1.57637 131.07 1.94069V16.8201C131.07 17.1844 130.954 17.4907 130.722 17.7391C130.49 17.971 130.184 18.0869 129.803 18.0869C129.405 18.0869 129.083 17.971 128.834 17.7391C128.602 17.4907 128.486 17.1844 128.486 16.8201V4.226L129.281 4.39989L123.816 12.7214C123.7 12.8704 123.551 13.0029 123.369 13.1188C123.187 13.2182 122.997 13.2596 122.798 13.243C122.616 13.2596 122.425 13.2182 122.227 13.1188C122.044 13.0029 121.895 12.8704 121.779 12.7214L116.513 4.52409L117.109 3.53048V16.8201C117.109 17.1844 116.994 17.4907 116.762 17.7391C116.546 17.971 116.257 18.0869 115.892 18.0869C115.545 18.0869 115.255 17.971 115.023 17.7391C114.808 17.4907 114.7 17.1844 114.7 16.8201V1.94069C114.7 1.59293 114.824 1.29485 115.073 1.04644C115.338 0.798038 115.644 0.673836 115.992 0.673836ZM137.237 16.8201C137.22 17.1844 137.079 17.4907 136.814 17.7391C136.566 17.971 136.268 18.0869 135.92 18.0869C135.539 18.0869 135.225 17.971 134.976 17.7391C134.744 17.4907 134.629 17.1844 134.629 16.8201V1.96553C134.629 1.60121 134.753 1.30313 135.001 1.07128C135.25 0.822878 135.572 0.698676 135.97 0.698676C136.301 0.698676 136.591 0.822878 136.839 1.07128C137.104 1.30313 137.237 1.60121 137.237 1.96553V16.8201ZM153.795 0.698676C154.127 0.698676 154.392 0.814598 154.59 1.04644C154.806 1.26172 154.913 1.53497 154.913 1.86617V16.8201C154.913 17.1844 154.789 17.4907 154.541 17.7391C154.309 17.971 154.011 18.0869 153.646 18.0869C153.481 18.0869 153.299 18.0538 153.1 17.9876C152.918 17.9213 152.777 17.8302 152.678 17.7143L142.468 4.47441L143.039 4.15148V16.9443C143.039 17.2589 142.932 17.5321 142.717 17.764C142.501 17.9793 142.228 18.0869 141.897 18.0869C141.549 18.0869 141.268 17.9793 141.052 17.764C140.854 17.5321 140.754 17.2589 140.754 16.9443V1.96553C140.754 1.58465 140.878 1.27828 141.127 1.04644C141.375 0.814598 141.673 0.698676 142.021 0.698676C142.203 0.698676 142.394 0.740077 142.592 0.822878C142.808 0.889119 142.965 0.996761 143.064 1.1458L153.025 14.1125L152.653 14.4602V1.86617C152.653 1.53497 152.76 1.26172 152.976 1.04644C153.191 0.814598 153.464 0.698676 153.795 0.698676Z" fill="#0367FB"/>
</svg>
