<svg width="81" height="80" viewBox="0 0 81 80" fill="none" xmlns="http://www.w3.org/2000/svg">
<path fill-rule="evenodd" clip-rule="evenodd" d="M26.8666 10.7667L11.2666 26.3767V26.3433C11.0198 26.5938 10.8251 26.8907 10.6935 27.2168C10.5619 27.5428 10.4961 27.8917 10.4999 28.2433V51.7567C10.4999 52.49 10.7666 53.1567 11.2666 53.6567L26.8332 69.2333C27.3332 69.7333 28.0332 70 28.7332 70H52.2666C52.9999 70 53.6666 69.7333 54.1666 69.2333L69.7332 53.6567C69.98 53.4062 70.1748 53.1093 70.3063 52.7832C70.4379 52.4572 70.5037 52.1083 70.4999 51.7567V28.2433C70.4999 27.51 70.2332 26.8433 69.7332 26.3433L54.1666 10.7667C53.9161 10.5199 53.6192 10.3252 53.2931 10.1936C52.9671 10.062 52.6182 9.99622 52.2666 10H28.7666C28.0332 10 27.3666 10.2667 26.8666 10.7667ZM40.4999 23.3333C41.384 23.3333 42.2318 23.6845 42.8569 24.3096C43.4821 24.9348 43.8332 25.7826 43.8332 26.6667V43.3333C43.8332 44.2174 43.4821 45.0652 42.8569 45.6904C42.2318 46.3155 41.384 46.6667 40.4999 46.6667C39.6159 46.6667 38.768 46.3155 38.1429 45.6904C37.5178 45.0652 37.1666 44.2174 37.1666 43.3333V26.6667C37.1666 25.7826 37.5178 24.9348 38.1429 24.3096C38.768 23.6845 39.6159 23.3333 40.4999 23.3333ZM37.1666 53.3333C37.1666 52.4493 37.5178 51.6014 38.1429 50.9763C38.768 50.3512 39.6159 50 40.4999 50H40.5266C41.4106 50 42.2585 50.3512 42.8836 50.9763C43.5087 51.6014 43.8599 52.4493 43.8599 53.3333C43.8599 54.2174 43.5087 55.0652 42.8836 55.6904C42.2585 56.3155 41.4106 56.6667 40.5266 56.6667H40.4999C39.6159 56.6667 38.768 56.3155 38.1429 55.6904C37.5178 55.0652 37.1666 54.2174 37.1666 53.3333Z" fill="#DBDBDB"/>
</svg>
