<svg width="81" height="80" viewBox="0 0 81 80" fill="none" xmlns="http://www.w3.org/2000/svg">
<path d="M40.5 78C44.9183 78 48.5 74.4183 48.5 70C48.5 65.5817 44.9183 62 40.5 62C36.0817 62 32.5 65.5817 32.5 70C32.5 74.4183 36.0817 78 40.5 78Z" fill="#DBDBDB"/>
<path d="M66.1 52.4C61.6607 47.0181 55.3958 43.4584 48.5 42.4L62.1 56L66.1 52.4ZM76.5 39.6C71.0363 32.9737 64.2447 27.9795 56.7157 25.0516C49.1868 22.1236 41.1486 21.3507 33.3 22.8L40.5 30C46.2093 30.186 51.8109 31.605 56.9202 34.1597C62.0295 36.7143 66.5256 40.3441 70.1 44.8L76.5 39.6ZM14.5 14L8.5 19.6L17.3 28.4C12.4519 31.4114 8.12826 35.1945 4.5 39.6L10.5 44.8C14.0521 40.5363 18.3994 37.0041 23.3 34.4L32.5 43.2C27.3253 44.97 22.7516 48.1577 19.3 52.4L24.9 58C26.629 55.7563 28.7981 53.8894 31.2743 52.5137C33.7504 51.1381 36.4815 50.2827 39.3 50L66.5 78L72.5 72L14.5 14Z" fill="#DBDBDB"/>
</svg>
