<svg width="20" height="20" viewBox="0 0 20 20" fill="none" xmlns="http://www.w3.org/2000/svg">
<path d="M15.7749 16.6667C14.3705 16.6667 12.9305 16.315 11.4549 15.6117C9.97936 14.9084 8.60853 13.9209 7.34242 12.6492C6.07631 11.3775 5.09159 10.0067 4.38825 8.53671C3.68492 7.06671 3.33325 5.62949 3.33325 4.22504C3.33325 3.9706 3.41659 3.75865 3.58325 3.58921C3.74992 3.41976 3.95825 3.33449 4.20825 3.33337H6.26908C6.49575 3.33337 6.69353 3.40476 6.86242 3.54754C7.03131 3.69032 7.14547 3.87337 7.20492 4.09671L7.61825 6.08337C7.65714 6.31671 7.6502 6.52032 7.59742 6.69421C7.54464 6.8681 7.45214 7.0106 7.31992 7.12171L5.49159 8.82671C5.83381 9.44726 6.21186 10.0239 6.62575 10.5567C7.03964 11.0895 7.48131 11.5942 7.95075 12.0709C8.43409 12.5542 8.95464 13.0042 9.51242 13.4209C10.0702 13.837 10.6824 14.2298 11.3491 14.5992L13.1316 12.785C13.2671 12.6389 13.4196 12.5425 13.5891 12.4959C13.758 12.4498 13.9452 12.4406 14.1508 12.4684L15.9033 12.8267C16.1299 12.8823 16.3138 12.9964 16.4549 13.1692C16.596 13.342 16.6666 13.5398 16.6666 13.7625V15.7917C16.6666 16.0417 16.5816 16.25 16.4116 16.4167C16.2416 16.5834 16.0288 16.6667 15.7749 16.6667ZM5.09992 8.04504L6.69992 6.57421C6.7527 6.53143 6.78714 6.47254 6.80325 6.39754C6.81992 6.32254 6.81714 6.2531 6.79492 6.18921L6.42575 4.42254C6.40409 4.33754 6.36659 4.27365 6.31325 4.23087C6.25992 4.1881 6.19075 4.16671 6.10575 4.16671H4.39575C4.33186 4.16671 4.27853 4.1881 4.23575 4.23087C4.19297 4.27365 4.17159 4.32699 4.17159 4.39087C4.1877 4.96032 4.27686 5.55476 4.43909 6.17421C4.60131 6.79365 4.82103 7.41726 5.09992 8.04504ZM12.1424 14.99C12.7058 15.2689 13.3058 15.4753 13.9424 15.6092C14.5802 15.7425 15.1358 15.8139 15.6091 15.8234C15.673 15.8234 15.7263 15.802 15.7691 15.7592C15.8119 15.7164 15.8333 15.6634 15.8333 15.6V13.9267C15.8333 13.8417 15.8119 13.7723 15.7691 13.7184C15.7263 13.665 15.6624 13.6278 15.5774 13.6067L14.0358 13.2909C13.9713 13.2692 13.9149 13.2664 13.8666 13.2825C13.8188 13.2992 13.7683 13.3339 13.7149 13.3867L12.1424 14.99Z" fill="#808080"/>
</svg>
