<svg width="20" height="20" viewBox="0 0 20 20" fill="none" xmlns="http://www.w3.org/2000/svg">
<path d="M10.0003 16.3975C11.5669 15.0342 12.8053 13.6478 13.7153 12.2383C14.6253 10.8289 15.0803 9.60944 15.0803 8.58C15.0803 7.05556 14.5978 5.79722 13.6328 4.805C12.6666 3.81333 11.4558 3.3175 10.0003 3.3175C8.5447 3.3175 7.33386 3.81333 6.36775 4.805C5.40164 5.79667 4.91914 7.055 4.92025 8.58C4.92025 9.60889 5.37525 10.8283 6.28525 12.2383C7.19525 13.6483 8.43359 15.0347 10.0003 16.3975ZM10.0003 17.13C9.8697 17.13 9.73914 17.1086 9.60859 17.0658C9.47803 17.0231 9.35803 16.9536 9.24859 16.8575C8.65581 16.3125 8.0547 15.7056 7.44525 15.0367C6.83636 14.3683 6.28359 13.6758 5.78692 12.9592C5.29025 12.2425 4.88248 11.5111 4.56359 10.765C4.2447 10.0189 4.08581 9.29056 4.08692 8.58C4.08692 6.81722 4.66081 5.36333 5.80859 4.21833C6.95692 3.07278 8.35414 2.5 10.0003 2.5C11.6464 2.5 13.0436 3.07278 14.1919 4.21833C15.3397 5.36333 15.9136 6.81722 15.9136 8.58C15.9136 9.29056 15.7547 10.0164 15.4369 10.7575C15.1191 11.4981 14.7141 12.2292 14.2219 12.9508C13.7303 13.6731 13.18 14.3658 12.5711 15.0292C11.9622 15.6925 11.3608 16.2967 10.7669 16.8417C10.6608 16.9378 10.5403 17.01 10.4053 17.0583C10.2697 17.1061 10.1344 17.13 9.99942 17.13M10.0028 9.77583C10.3733 9.77583 10.69 9.64361 10.9528 9.37917C11.215 9.11528 11.3461 8.79778 11.3461 8.42667C11.3461 8.05556 11.2139 7.73889 10.9494 7.47667C10.685 7.21444 10.3675 7.08333 9.99692 7.08333C9.62637 7.08333 9.3097 7.21556 9.04692 7.48C8.78414 7.74444 8.65303 8.06194 8.65359 8.4325C8.65414 8.80306 8.78609 9.11972 9.04942 9.3825C9.31275 9.64528 9.63053 9.77639 10.0028 9.77583Z" fill="#808080"/>
</svg>
