<svg width="74" height="19" viewBox="0 0 74 19" fill="none" xmlns="http://www.w3.org/2000/svg">
<path d="M12.8564 0.673836C13.2207 0.673836 13.5105 0.798038 13.7258 1.04644C13.9411 1.27828 14.0487 1.57637 14.0487 1.94069V11.3552C14.0487 12.68 13.7589 13.8641 13.1793 14.9074C12.5997 15.9506 11.8048 16.7704 10.7946 17.3665C9.78444 17.9462 8.61695 18.236 7.29213 18.236C5.98387 18.236 4.81638 17.9462 3.78964 17.3665C2.77947 16.7704 1.9763 15.9506 1.38013 14.9074C0.800521 13.8641 0.510717 12.68 0.510717 11.3552V1.94069C0.510717 1.57637 0.634919 1.27828 0.883322 1.04644C1.13173 0.798038 1.45465 0.673836 1.8521 0.673836C2.16674 0.673836 2.44826 0.798038 2.69667 1.04644C2.96163 1.27828 3.09411 1.57637 3.09411 1.94069V11.3552C3.09411 12.2329 3.28455 13.0029 3.66544 13.6653C4.06289 14.3112 4.58453 14.8245 5.23038 15.2054C5.87623 15.5698 6.56348 15.7519 7.29213 15.7519C8.08702 15.7519 8.81567 15.5698 9.47808 15.2054C10.1405 14.8245 10.6704 14.3112 11.0679 13.6653C11.4819 13.0029 11.6889 12.2329 11.6889 11.3552V1.94069C11.6889 1.57637 11.7882 1.27828 11.987 1.04644C12.2022 0.798038 12.492 0.673836 12.8564 0.673836ZM30.6422 0.698676C30.9734 0.698676 31.2384 0.814598 31.4371 1.04644C31.6524 1.26172 31.7601 1.53497 31.7601 1.86617V16.8201C31.7601 17.1844 31.6359 17.4907 31.3875 17.7391C31.1556 17.971 30.8575 18.0869 30.4932 18.0869C30.3276 18.0869 30.1454 18.0538 29.9467 17.9876C29.7645 17.9213 29.6238 17.8302 29.5244 17.7143L19.315 4.47441L19.8864 4.15148V16.9443C19.8864 17.2589 19.7787 17.5321 19.5634 17.764C19.3482 17.9793 19.0749 18.0869 18.7437 18.0869C18.396 18.0869 18.1144 17.9793 17.8991 17.764C17.7004 17.5321 17.6011 17.2589 17.6011 16.9443V1.96553C17.6011 1.58465 17.7253 1.27828 17.9737 1.04644C18.2221 0.814598 18.5202 0.698676 18.8679 0.698676C19.0501 0.698676 19.2405 0.740077 19.4392 0.822878C19.6545 0.889119 19.8119 0.996761 19.9112 1.1458L29.8722 14.1125L29.4996 14.4602V1.86617C29.4996 1.53497 29.6072 1.26172 29.8225 1.04644C30.0378 0.814598 30.311 0.698676 30.6422 0.698676ZM37.9304 16.8201C37.9138 17.1844 37.773 17.4907 37.5081 17.7391C37.2597 17.971 36.9616 18.0869 36.6138 18.0869C36.2329 18.0869 35.9183 17.971 35.6699 17.7391C35.438 17.4907 35.3221 17.1844 35.3221 16.8201V1.96553C35.3221 1.60121 35.4463 1.30313 35.6947 1.07128C35.9431 0.822878 36.2661 0.698676 36.6635 0.698676C36.9947 0.698676 37.2845 0.822878 37.5329 1.07128C37.7979 1.30313 37.9304 1.60121 37.9304 1.96553V16.8201ZM42.9382 18.0869C42.5408 18.0869 42.193 17.971 41.8949 17.7391C41.5968 17.4907 41.4478 17.1844 41.4478 16.8201V1.96553C41.4478 1.60121 41.572 1.30313 41.8204 1.07128C42.0688 0.822878 42.3669 0.698676 42.7146 0.698676H49.7196C50.6139 0.698676 51.4336 0.92224 52.1788 1.36937C52.924 1.79993 53.5202 2.40438 53.9673 3.18271C54.431 3.94448 54.6628 4.82217 54.6628 5.81579C54.6628 6.4782 54.5304 7.11576 54.2654 7.72849C54.0004 8.32466 53.6444 8.85459 53.1973 9.31827C52.7501 9.78196 52.2451 10.1297 51.682 10.3616L51.4088 9.8896C51.9221 10.0718 52.3693 10.3367 52.7501 10.6845C53.131 11.0157 53.4291 11.4131 53.6444 11.8768C53.8762 12.324 54.0004 12.8373 54.017 13.4169C54.0667 13.9303 54.1081 14.3609 54.1412 14.7086C54.1909 15.0398 54.2571 15.3131 54.3399 15.5284C54.4227 15.7436 54.5718 15.9092 54.787 16.0252C55.0851 16.1908 55.2673 16.4392 55.3335 16.7704C55.4163 17.1016 55.3501 17.3997 55.1348 17.6646C54.9858 17.8634 54.7953 17.9958 54.5635 18.0621C54.3482 18.1118 54.1246 18.12 53.8928 18.0869C53.661 18.0372 53.4622 17.971 53.2966 17.8882C53.0317 17.7226 52.7584 17.4907 52.4769 17.1927C52.2119 16.878 51.9966 16.4475 51.831 15.901C51.6654 15.3545 51.5826 14.6341 51.5826 13.7399C51.5826 13.3258 51.5164 12.9698 51.3839 12.6717C51.2514 12.3736 51.0693 12.1335 50.8374 11.9514C50.6056 11.7526 50.3323 11.6119 50.0177 11.5291C49.7031 11.4297 49.3553 11.38 48.9744 11.38H43.7083L44.056 10.8832V16.8201C44.056 17.1844 43.9567 17.4907 43.7579 17.7391C43.5592 17.971 43.286 18.0869 42.9382 18.0869ZM43.7331 9.21891H49.6699C50.0508 9.20235 50.4151 9.05331 50.7629 8.77179C51.1272 8.4737 51.417 8.07626 51.6323 7.57945C51.8642 7.08264 51.9801 6.5196 51.9801 5.89031C51.9801 5.09542 51.74 4.43301 51.2597 3.90308C50.796 3.35659 50.2413 3.08335 49.5954 3.08335H43.7828L44.056 2.4375V9.74056L43.7331 9.21891ZM73.4645 9.3928C73.4645 10.6514 73.2575 11.8271 72.8435 12.9201C72.4294 13.9965 71.8416 14.9405 71.0798 15.7519C70.3346 16.5634 69.4486 17.2009 68.4219 17.6646C67.3951 18.1118 66.269 18.3353 65.0436 18.3353C63.8347 18.3353 62.7169 18.1118 61.6901 17.6646C60.6634 17.2009 59.7692 16.5634 59.0074 15.7519C58.2622 14.9405 57.6826 13.9965 57.2686 12.9201C56.8711 11.8271 56.6724 10.6514 56.6724 9.3928C56.6724 8.13422 56.8711 6.96672 57.2686 5.89031C57.6826 4.79733 58.2622 3.84512 59.0074 3.03367C59.7692 2.22222 60.6634 1.59293 61.6901 1.1458C62.7169 0.682116 63.8347 0.450273 65.0436 0.450273C66.269 0.450273 67.3951 0.682116 68.4219 1.1458C69.4486 1.59293 70.3346 2.22222 71.0798 3.03367C71.8416 3.84512 72.4294 4.79733 72.8435 5.89031C73.2575 6.96672 73.4645 8.13422 73.4645 9.3928ZM70.7817 9.3928C70.7817 8.16734 70.5333 7.06608 70.0365 6.08903C69.5562 5.11198 68.8856 4.34193 68.0244 3.77888C67.1633 3.21583 66.1697 2.93431 65.0436 2.93431C63.934 2.93431 62.9487 3.21583 62.0876 3.77888C61.2265 4.34193 60.5558 5.11198 60.0755 6.08903C59.5953 7.04952 59.3551 8.15078 59.3551 9.3928C59.3551 10.6183 59.5953 11.7195 60.0755 12.6966C60.5558 13.6736 61.2265 14.4437 62.0876 15.0067C62.9487 15.5698 63.934 15.8513 65.0436 15.8513C66.1697 15.8513 67.1633 15.5698 68.0244 15.0067C68.8856 14.4437 69.5562 13.6736 70.0365 12.6966C70.5333 11.7195 70.7817 10.6183 70.7817 9.3928Z" fill="#0367FB"/>
</svg>
